<svg version="1.1" id="Layer_1" xmlns="http://www.w3.org/2000/svg" xmlns:xlink="http://www.w3.org/1999/xlink" x="0px" y="0px"
	 width="100%" viewBox="0 0 451 451" enable-background="new 0 0 451 451" xml:space="preserve">
<path fill="#FFDE59" opacity="1.000000" stroke="none" 
	d="
M197.000000,1.000003 
	C216.354233,1.000000 235.708450,1.000000 255.200928,1.343755 
	C259.934021,2.463718 264.601379,2.947604 269.111145,4.066647 
	C288.809998,8.954659 308.230591,14.564491 326.506958,23.769760 
	C345.536011,33.354118 363.241852,44.838512 378.718719,59.418938 
	C387.621979,67.806496 396.076935,76.833061 403.642853,86.431808 
	C411.438538,96.322060 418.589783,106.873512 424.764893,117.843857 
	C430.667358,128.329803 435.959717,139.396744 439.693726,150.806107 
	C444.450867,165.341949 449.296783,180.043152 450.108368,195.589508 
	C450.134552,196.091217 451.342773,196.531235 452.000000,197.000000 
	C452.000000,216.354233 452.000000,235.708450 451.656250,255.200928 
	C450.536224,259.936432 450.071686,264.612701 448.929779,269.117279 
	C443.948456,288.767303 438.546021,308.237274 429.263184,326.479004 
	C419.598206,345.471588 408.245911,363.275757 393.591034,378.719666 
	C385.165039,387.599335 376.163849,396.084503 366.558594,403.651917 
	C356.661835,411.449005 346.097717,418.591858 335.121765,424.770660 
	C324.653046,430.663849 313.607117,435.952850 302.217468,439.683197 
	C287.674866,444.446136 272.966461,449.294220 257.412262,450.108246 
	C256.909882,450.134521 256.469360,451.342743 256.000000,452.000000 
	C236.645767,452.000000 217.291550,452.000000 197.799072,451.656250 
	C193.063507,450.536255 188.387161,450.071838 183.882584,448.929810 
	C164.232697,443.948059 144.762573,438.546082 126.520897,429.263123 
	C107.528351,419.598022 89.724167,408.245850 74.280235,393.590973 
	C65.400558,385.164978 56.915409,376.163788 49.348011,366.558563 
	C41.550922,356.661804 34.408077,346.097656 28.229319,335.121674 
	C22.336123,324.653046 17.047104,313.607117 13.316840,302.217468 
	C8.553943,287.674835 3.705706,272.966461 2.891788,257.412231 
	C2.865500,256.909851 1.657260,256.469360 1.000002,256.000000 
	C1.000000,236.645767 1.000000,217.291550 1.343754,197.799072 
	C2.463756,193.063553 2.928169,188.387238 4.070158,183.882690 
	C9.051792,164.232758 14.453875,144.762711 23.736820,126.521004 
	C33.401875,107.528442 44.754074,89.724236 59.408970,74.280319 
	C67.834976,65.400665 76.836151,56.915474 86.441368,49.348053 
	C96.338112,41.550957 106.902245,34.408089 117.878235,28.229321 
	C128.346924,22.336130 139.392868,17.047131 150.782547,13.316857 
	C165.325165,8.553943 180.033508,3.705701 195.587784,2.891796 
	C196.090134,2.865508 196.530655,1.657265 197.000000,1.000003 
M188.390198,98.924850 
	C183.257599,100.840736 177.993744,102.466118 173.012497,104.716965 
	C116.697906,130.163605 85.637848,186.845886 94.888741,248.112213 
	C105.403038,317.745697 170.703384,371.486908 247.670685,359.653595 
	C320.475739,348.460175 369.454742,281.869659 359.852905,209.031357 
	C349.198242,128.206177 267.543396,75.446571 188.390198,98.924850 
z"/>
<path fill="#000000" opacity="1.000000" stroke="none" 
	d="
M452.000000,196.531342 
	C451.342773,196.531235 450.134552,196.091217 450.108368,195.589508 
	C449.296783,180.043152 444.450867,165.341949 439.693726,150.806107 
	C435.959717,139.396744 430.667358,128.329803 424.764893,117.843857 
	C418.589783,106.873512 411.438538,96.322060 403.642853,86.431808 
	C396.076935,76.833061 387.621979,67.806496 378.718719,59.418938 
	C363.241852,44.838512 345.536011,33.354118 326.506958,23.769760 
	C308.230591,14.564491 288.809998,8.954659 269.111145,4.066647 
	C264.601379,2.947604 259.934021,2.463718 255.669586,1.343755 
	C321.260345,1.000000 386.520721,1.000000 452.000000,1.000000 
	C452.000000,66.020729 452.000000,131.041702 452.000000,196.531342 
z"/>
<path fill="#000000" opacity="1.000000" stroke="none" 
	d="
M196.531342,1.000003 
	C196.530655,1.657265 196.090134,2.865508 195.587784,2.891796 
	C180.033508,3.705701 165.325165,8.553943 150.782547,13.316857 
	C139.392868,17.047131 128.346924,22.336130 117.878235,28.229321 
	C106.902245,34.408089 96.338112,41.550957 86.441368,49.348053 
	C76.836151,56.915474 67.834976,65.400665 59.408970,74.280319 
	C44.754074,89.724236 33.401875,107.528442 23.736820,126.521004 
	C14.453875,144.762711 9.051792,164.232758 4.070158,183.882690 
	C2.928169,188.387238 2.463756,193.063553 1.343754,197.330414 
	C1.000000,131.739639 1.000000,66.479271 1.000000,1.000000 
	C66.020729,1.000000 131.041702,1.000000 196.531342,1.000003 
z"/>
<path fill="#000000" opacity="1.000000" stroke="none" 
	d="
M1.000002,256.468658 
	C1.657260,256.469360 2.865500,256.909851 2.891788,257.412231 
	C3.705706,272.966461 8.553943,287.674835 13.316840,302.217468 
	C17.047104,313.607117 22.336123,324.653046 28.229319,335.121674 
	C34.408077,346.097656 41.550922,356.661804 49.348011,366.558563 
	C56.915409,376.163788 65.400558,385.164978 74.280235,393.590973 
	C89.724167,408.245850 107.528351,419.598022 126.520897,429.263123 
	C144.762573,438.546082 164.232697,443.948059 183.882584,448.929810 
	C188.387161,450.071838 193.063507,450.536255 197.330414,451.656250 
	C131.739655,452.000000 66.479294,452.000000 1.000000,452.000000 
	C1.000000,386.979279 1.000000,321.958282 1.000002,256.468658 
z"/>
<path fill="#000000" opacity="1.000000" stroke="none" 
	d="
M256.468658,452.000000 
	C256.469360,451.342743 256.909882,450.134521 257.412262,450.108246 
	C272.966461,449.294220 287.674866,444.446136 302.217468,439.683197 
	C313.607117,435.952850 324.653046,430.663849 335.121765,424.770660 
	C346.097717,418.591858 356.661835,411.449005 366.558594,403.651917 
	C376.163849,396.084503 385.165039,387.599335 393.591034,378.719666 
	C408.245911,363.275757 419.598206,345.471588 429.263184,326.479004 
	C438.546021,308.237274 443.948456,288.767303 448.929779,269.117279 
	C450.071686,264.612701 450.536224,259.936432 451.656250,255.669586 
	C452.000000,321.260345 452.000000,386.520721 452.000000,452.000000 
	C386.979279,452.000000 321.958282,452.000000 256.468658,452.000000 
z"/>
<path fill="#1B180A" opacity="1.000000" stroke="none" 
	d="
M188.783951,98.838951 
	C267.543396,75.446571 349.198242,128.206177 359.852905,209.031357 
	C369.454742,281.869659 320.475739,348.460175 247.670685,359.653595 
	C170.703384,371.486908 105.403038,317.745697 94.888741,248.112213 
	C85.637848,186.845886 116.697906,130.163605 173.012497,104.716965 
	C177.993744,102.466118 183.257599,100.840736 188.783951,98.838951 
M351.093994,183.522980 
	C326.687592,114.459389 252.219482,78.705460 182.539413,103.485367 
	C117.921463,126.465057 77.358910,197.948792 103.453644,271.653259 
	C127.446228,339.420258 200.534622,374.170685 267.292542,352.425537 
	C338.009064,329.390961 375.542664,254.355972 351.093994,183.522980 
z"/>
<path fill="#FEDD59" opacity="1.000000" stroke="none" 
	d="
M351.233276,183.892380 
	C375.542664,254.355972 338.009064,329.390961 267.292542,352.425537 
	C200.534622,374.170685 127.446228,339.420258 103.453644,271.653259 
	C77.358910,197.948792 117.921463,126.465057 182.539413,103.485367 
	C252.219482,78.705460 326.687592,114.459389 351.233276,183.892380 
M195.119629,275.005646 
	C196.312332,274.897430 197.505051,274.789215 199.723053,274.587952 
	C186.554382,269.910095 186.554260,269.910095 186.554199,256.143280 
	C186.554108,233.983429 186.548233,211.823563 186.565948,189.663727 
	C186.567322,187.963074 186.735779,186.262573 186.887024,183.429474 
	C216.820999,215.364487 245.856277,246.340714 274.891541,277.316956 
	C275.946716,275.686737 275.955048,274.738342 275.945496,273.790161 
	C275.608459,240.318573 275.225189,206.847321 274.975006,173.375076 
	C274.933136,167.769180 278.457245,164.108658 284.016937,163.171402 
	C285.103577,162.988220 286.189880,162.802902 287.276367,162.618561 
	C287.244263,162.391296 287.212158,162.164032 287.180054,161.936768 
	C276.405823,161.936768 265.631592,161.936768 254.857376,161.936768 
	C266.349152,165.111893 267.445007,166.522522 267.445557,178.669281 
	C267.446594,201.328979 267.451965,223.988678 267.432892,246.648361 
	C267.431488,248.328323 267.248505,250.008102 267.079254,252.892487 
	C237.081757,220.892578 208.026489,189.897797 178.971207,158.903000 
	C178.342911,165.974884 178.923004,172.398026 178.948700,178.823380 
	C179.055344,205.481430 178.995392,232.140137 178.994904,258.798615 
	C178.994705,269.914185 177.605072,271.602661 166.846802,273.649475 
	C166.690964,273.679138 166.620468,274.157379 166.272324,275.005768 
	C175.735779,275.005768 184.970703,275.005768 195.119629,275.005646 
z"/>
<path fill="#575754" opacity="1.000000" stroke="none" 
	d="
M194.662628,275.005707 
	C184.970703,275.005768 175.735779,275.005768 166.272324,275.005768 
	C166.620468,274.157379 166.690964,273.679138 166.846802,273.649475 
	C177.605072,271.602661 178.994705,269.914185 178.994904,258.798615 
	C178.995392,232.140137 179.055344,205.481430 178.948700,178.823380 
	C178.923004,172.398026 178.342911,165.974884 178.971207,158.903000 
	C208.026489,189.897797 237.081757,220.892578 267.079254,252.892487 
	C267.248505,250.008102 267.431488,248.328323 267.432892,246.648361 
	C267.451965,223.988678 267.446594,201.328979 267.445557,178.669281 
	C267.445007,166.522522 266.349152,165.111893 254.857376,161.936768 
	C265.631592,161.936768 276.405823,161.936768 287.180054,161.936768 
	C287.212158,162.164032 287.244263,162.391296 287.276367,162.618561 
	C286.189880,162.802902 285.103577,162.988220 284.016937,163.171402 
	C278.457245,164.108658 274.933136,167.769180 274.975006,173.375076 
	C275.225189,206.847321 275.608459,240.318573 275.945496,273.790161 
	C275.955048,274.738342 275.946716,275.686737 274.891541,277.316956 
	C245.856277,246.340714 216.820999,215.364487 186.887024,183.429474 
	C186.735779,186.262573 186.567322,187.963074 186.565948,189.663727 
	C186.548233,211.823563 186.554108,233.983429 186.554199,256.143280 
	C186.554260,269.910095 186.554382,269.910095 199.723053,274.587952 
	C197.505051,274.789215 196.312332,274.897430 194.662628,275.005707 
z"/>
</svg>